#!OML:ASF E:\Style4\Style4.ASF
:FULLY-SPECIFIED
:DEGREES
3611
root -0.00996753 17.5255 -2.00181 4.4117 -1.5188 3.46988
lowerback 15.7666 2.88947 -2.96102
upperback 12.1329 3.43029 0.919559
thorax 3.90184 1.49744 2.21229
lowerneck 7.41258 -11.051 -8.26858
upperneck 36.1108 -13.6128 -4.36629
head 10.9263 -7.4521 -1.06993
rclavicle -5.52621e-014 2.54444e-014
rhumerus 50.5423 36.1307 -1505.64
rradius 31.4552
rwrist 1432.8
rhand 20.8072 4.39258
rfingers 7.12502
rthumb 45.2863 -18.9933
lclavicle -5.52621e-014 2.54444e-014
lhumerus 61.9142 7.82507 36.6114
lradius 121.123
lwrist 46.6859
lhand -5.38851 31.5942
lfingers 7.12502
lthumb 20.4201 60.5405
rfemur -28.5793 -5.58405 16.1828
rtibia 41.7392
rfoot -16.6625 -15.3114
rtoes -8.88951
lfemur -26.2983 1.9757 -22.3672
ltibia 38.2627
lfoot -15.8645 11.8713
ltoes -17.6549
3612
root -0.0103165 17.5434 -2.00765 4.56351 -1.51066 3.55151
lowerback 15.7093 2.88234 -3.01904
upperback 12.0695 3.41672 0.864551
thorax 3.86318 1.49062 2.189
lowerneck 7.45988 -11.0347 -8.3416
upperneck 35.9723 -13.6371 -4.21494
head 10.8816 -7.45861 -0.998281
rclavicle 7.95139e-016 -5.56597e-015
rhumerus 50.3446 36.1831 -1505.78
rradius 31.3986
rwrist 1433.26
rhand 22.4291 4.33678
rfingers 7.12502
rthumb 46.7909 -18.421
lclavicle 7.95139e-016 -5.56597e-015
lhumerus 62.0077 7.87983 36.6201
lradius 121.106
lwrist 46.6919
lhand -5.37378 31.6539
lfingers 7.12502
lthumb 20.4342 60.5987
rfemur -28.5697 -5.60021 16.0949
rtibia 41.396
rfoot -16.5602 -15.2304
rtoes -8.67367
lfemur -26.2482 1.90995 -22.4612
ltibia 37.8497
lfoot -15.6627 11.9231
ltoes -17.8835
3613
root -0.0117995 17.5611 -2.01511 4.75873 -1.48749 3.60511
lowerback 15.5584 2.86221 -3.03939
upperback 12.0028 3.39405 0.807593
thorax 3.87224 1.48095 2.1479
lowerneck 7.58921 -11.0222 -8.36149
upperneck 35.7041 -13.666 -4.09427
head 10.7622 -7.46371 -0.933279
rclavicle -5.64548e-014 6.36111e-015
rhumerus 50.1805 36.2892 -1505.85
rradius 31.3744
rwrist 1433.62
rhand 23.6284 4.17643
rfingers 7.12502
rthumb 47.899 -18.0834
lclavicle -5.64548e-014 6.36111e-015
lhumerus 62.0384 7.97116 36.6252
lradius 121.13
lwrist 46.7016
lhand -5.29784 31.6084
lfingers 7.12502
lthumb 20.5072 60.5453
rfemur -28.6058 -5.59778 16.0497
rtibia 41.0609
rfoot -16.4636 -15.1858
rtoes -8.12366
lfemur -26.2804 1.84283 -22.5119
ltibia 37.477
lfoot -15.4999 11.9082
ltoes -17.8071
3614
root -0.0150986 17.5732 -2.02273 4.90928 -1.46679 3.51378
lowerback 15.4221 2.83708 -2.94252
upperback 11.961 3.3766 0.794088
thorax 3.90335 1.47873 2.08654
lowerneck 7.64787 -10.9956 -8.35528
upperneck 35.5258 -13.6603 -4.00832
head 10.6856 -7.45338 -0.890985
rclavicle 5.28767e-014 -1.98785e-014
rhumerus 50.1179 36.4467 -1505.76
rradius 31.3695
rwrist 1433.96
rhand 24.1856 4.19033
rfingers 7.12502
rthumb 48.4124 -17.8277
lclavicle 5.28767e-014 -1.98785e-014
lhumerus 62.069 8.10558 36.6207
lradius 121.163
lwrist 46.6841
lhand -5.31227 31.5294
lfingers 7.12502
lthumb 20.4934 60.4679
rfemur -28.6171 -5.55744 16.1765
rtibia 40.7469
rfoot -16.2971 -15.2593
rtoes -8.13784
lfemur -26.2765 1.85322 -22.3874
ltibia 37.1377
lfoot -15.4096 11.7555
ltoes -17.1877
3615
root -0.0176686 17.5845 -2.02954 5.00534 -1.45267 3.3888
lowerback 15.4023 2.8188 -2.80737
upperback 11.9333 3.36751 0.800672
thorax 3.88945 1.48282 2.01913
lowerneck 7.60965 -10.9679 -8.41836
upperneck 35.4224 -13.6604 -3.86463
head 10.668 -7.44836 -0.829629
rclavicle -5.56597e-015 -3.97569e-015
rhumerus 50.0744 36.5425 -1505.67
rradius 31.3343
rwrist 1434.44
rhand 24.8607 4.51211
rfingers 7.12502
rthumb 49.0333 -17.2038
lclavicle -5.56597e-015 -3.97569e-015
lhumerus 62.145 8.31611 36.6839
lradius 121.158
lwrist 46.6586
lhand -5.08114 31.4312
lfingers 7.12502
lthumb 20.7154 60.3456
rfemur -28.5792 -5.47148 16.3256
rtibia 40.4502
rfoot -16.1404 -15.3642
rtoes -8.33079
lfemur -26.2285 1.86665 -22.2328
ltibia 36.8381
lfoot -15.3191 11.6294
ltoes -16.637
3616
root -0.0197072 17.5969 -2.03873 5.10913 -1.45841 3.39573
lowerback 15.4663 2.82516 -2.82969
upperback 11.8922 3.37053 0.791192
thorax 3.81008 1.4849 2.01703
lowerneck 7.56701 -10.9502 -8.56036
upperneck 35.2954 -13.6862 -3.66951
head 10.6546 -7.45923 -0.740468
rclavicle 5.56597e-014 -1.82882e-014
rhumerus 49.9514 36.575 -1505.69
rradius 31.3389
rwrist 1434.91
rhand 25.3659 4.72271
rfingers 7.12502
rthumb 49.4969 -16.7602
lclavicle 5.56597e-014 -1.82882e-014
lhumerus 62.2454 8.52729 36.6833
lradius 121.203
lwrist 46.7258
lhand -5.07781 31.3855
lfingers 7.12502
lthumb 20.7187 60.2995
rfemur -28.5909 -5.44855 16.339
rtibia 40.1922
rfoot -15.9388 -15.3981
rtoes -8.60606
lfemur -26.2274 1.88632 -22.2437
ltibia 36.5674
lfoot -15.1369 11.6464
ltoes -16.5845
3617
root -0.0228718 17.6079 -2.04865 5.2561 -1.46229 3.43428
lowerback 15.4744 2.85441 -2.94465
upperback 11.8249 3.39481 0.800182
thorax 3.72479 1.49158 2.08506
lowerneck 7.59296 -10.9573 -8.61871
upperneck 35.1501 -13.7309 -3.5517
head 10.6083 -7.47555 -0.68614
rclavicle -1.59028e-015 1.19271e-014
rhumerus 49.7847 36.6077 -1505.69
rradius 31.3768
rwrist 1435.29
rhand 25.524 4.88183
rfingers 7.12502
rthumb 49.6418 -16.527
lclavicle -1.59028e-015 1.19271e-014
lhumerus 62.7576 8.44364 36.64
lradius 120.797
lwrist 46.6375
lhand -5.28341 31.3049
lfingers 7.12502
lthumb 20.5211 60.2403
rfemur -28.6803 -5.45214 16.3341
rtibia 39.9705
rfoot -15.7358 -15.4457
rtoes -8.56195
lfemur -26.2934 1.84916 -22.2759
ltibia 36.3289
lfoot -15.0238 11.7054
ltoes -16.5406
3618
root -0.0257689 17.6166 -2.05694 5.39623 -1.46174 3.4269
lowerback 15.4224 2.86594 -2.98676
upperback 11.774 3.40642 0.804509
thorax 3.69316 1.49563 2.11234
lowerneck 7.59344 -10.9707 -8.56137
upperneck 35.0354 -13.7392 -3.59737
head 10.5528 -7.47633 -0.705225
rclavicle 1.19271e-015 1.43125e-014
rhumerus 49.6747 36.723 -1505.61
rradius 31.4546
rwrist 1435.56
rhand 25.2586 5.03602
rfingers 7.12502
rthumb 49.3985 -16.4969
lclavicle 1.19271e-015 1.43125e-014
lhumerus 63.3156 8.3951 36.7486
lradius 120.265
lwrist 46.1072
lhand -4.69543 31.4057
lfingers 7.12502
lthumb 21.086 60.2792
rfemur -28.7662 -5.44169 16.3642
rtibia 39.7971
rfoot -15.676 -15.45
rtoes -8.41544
lfemur -26.3389 1.77238 -22.2465
ltibia 36.108
lfoot -15.0378 11.6982
ltoes -16.1574
